<svg width="95" height="93" viewBox="0 0 95 93" fill="none" xmlns="http://www.w3.org/2000/svg">
<path d="M47.4582 0.97266C21.6173 0.962211 0.6875 21.8815 0.6875 47.7016C0.6875 68.1193 13.7804 85.4755 32.0143 91.8495C34.4698 92.466 34.0937 90.721 34.0937 89.5298V81.4316C19.9141 83.0931 19.3394 73.7097 18.3885 72.1423C16.4658 68.8612 11.9204 68.0253 13.2788 66.4579C16.5076 64.7965 19.7991 66.8759 23.6131 72.508C26.3717 76.5937 31.753 75.904 34.4803 75.2248C35.0759 72.7692 36.3507 70.5749 38.1062 68.8717C23.4146 66.2385 17.2913 57.273 17.2913 46.6148C17.2913 41.4425 18.9945 36.6881 22.3383 32.8532C20.2066 26.5314 22.5368 21.1188 22.8503 20.3142C28.9213 19.7708 35.2326 24.661 35.7237 25.0477C39.172 24.1177 43.1113 23.6266 47.5209 23.6266C51.9514 23.6266 55.9012 24.1386 59.3808 25.079C60.5615 24.1804 66.4131 19.9798 72.0557 20.4918C72.3587 21.2964 74.6366 26.5837 72.6304 32.8219C76.0159 36.6672 77.74 41.4634 77.74 46.6462C77.74 57.3253 71.575 66.3012 56.8416 68.8926C58.1036 70.1336 59.1056 71.6137 59.7891 73.2463C60.4727 74.879 60.8241 76.6314 60.8228 78.4014V90.1567C60.9063 91.0972 60.8228 92.0272 62.3901 92.0272C80.8957 85.789 94.2185 68.3074 94.2185 47.712C94.2185 21.8815 73.2782 0.97266 47.4582 0.97266Z" fill="#E91388"/>
</svg>
