<svg xmlns="http://www.w3.org/2000/svg" width="32" height="32" viewBox="0 0 32 32" fill="none">
    <path fill-rule="evenodd" clip-rule="evenodd" d="M8 0C3.58172 0 0 3.58172 0 8V24C0 28.4183 3.58172 32 8 32H9V14.38C9 10.312 12.276 7 16.38 7H24.408V11.356H16.38C15.264 11.356 14.256 11.932 13.716 12.868C13.176 13.804 13.176 14.956 13.716 15.892C14.256 16.864 15.264 17.44 16.38 17.404H24.408V21.76H16.38C15.336 21.76 14.292 21.544 13.32 21.112V32H24C28.4183 32 32 28.4183 32 24V8C32 3.58172 28.4183 0 24 0H8Z" fill="#4263EB"/>
</svg>