<svg width="91" height="91" viewBox="0 0 91 91" fill="none" xmlns="http://www.w3.org/2000/svg">
<circle cx="45.5" cy="45.5" r="45.5" fill="#E91388"/>
<path d="M63.1471 33.7354H60.2059V27.853C60.2059 19.7353 53.6176 13.147 45.4999 13.147C37.3822 13.147 30.7939 19.7353 30.7939 27.853V33.7354H27.8527C24.6174 33.7354 21.9703 36.3824 21.9703 39.6178V69.0298C21.9703 72.2651 24.6174 74.9122 27.8527 74.9122H63.1471C66.3824 74.9122 69.0295 72.2651 69.0295 69.0298V39.6178C69.0295 36.3824 66.3824 33.7354 63.1471 33.7354ZM36.6763 27.853C36.6763 22.9706 40.6175 19.0294 45.4999 19.0294C50.3823 19.0294 54.3235 22.9706 54.3235 27.853V33.7354H36.6763V27.853ZM63.1471 69.0298H27.8527V39.6178H63.1471V69.0298ZM45.4999 60.2062C48.7352 60.2062 51.3823 57.5591 51.3823 54.3238C51.3823 51.0884 48.7352 48.4414 45.4999 48.4414C42.2646 48.4414 39.6175 51.0884 39.6175 54.3238C39.6175 57.5591 42.2646 60.2062 45.4999 60.2062Z" fill="white"/>
</svg>
